<svg xmlns="http://www.w3.org/2000/svg" viewBox="0 0 289.97 289.97">
    <defs>
        <style>.cls-1,.cls-3{fill:#171717;}.cls-1{stroke:#231f20;stroke-miterlimit:10;}.cls-2{fill:#d81b61;}</style>
    </defs>

    <g id="Mouth">
        <path class="cls-3" d="M178,105.38c9.45-1.69,18.7,5.61,20.66,16.36s-4.11,20.85-13.56,22.58-18.66-5.61-20.66-16.32S168.59,107.15,178,105.38Z"/>
        <path class="cls-3" d="M91.6,119.59c2.69-10.56,12.48-17.2,21.74-14.82s14.63,12.9,11.94,23.46-12.44,17.2-21.74,14.82S88.91,130.15,91.6,119.59Z"/>
        <g id="Group">
            <path class="cls-3" d="M153.27,166.13c-4.38,2.38-8.14,4.92-13.25,3-3-1.07-5.76-1.92-8.33-3.84-1.84-1.34-3.92-2.45-5.76-3.8-1-.69-1.88-1.42-2.84-2.11a4.9,4.9,0,0,0-2.84-1.34c-1.12-.12-3.3-.2-4.15.73-3.61,4,1.46,10,4.19,12.74,4.07,4,9.86,8.45,15.2,10.76s10.41,5,16,2.22c6.1-3.07,11.4-7.52,16.78-11.63,3.53-2.69,11.44-7.41,10.06-12.67-1-3.84-5.42-3-8.33-2.12-3.69,1.12-7,3-10.41,4.73C157.46,163.86,155.38,165,153.27,166.13Z"/>
        </g>
    </g>
</svg>