<svg id="Layer_1" data-name="Layer 1" xmlns="http://www.w3.org/2000/svg" xmlns:xlink="http://www.w3.org/1999/xlink" viewBox="0 0 698.88 124.32"><defs><style>.cls-1{fill:none;}.background{fill:#fff;}.outline{stroke:#000;stroke-miterlimit:10;stroke-width:3px;fill:url(#Pattern);}</style><pattern id="Pattern" data-name="New Pattern Swatch 3" width="7.6" height="7.6" patternUnits="userSpaceOnUse" viewBox="0 0 7.6 7.6"><rect class="cls-1" width="7.6" height="7.6"/><rect class="background" x="7.5" y="5.6" width="4" height="4"/><rect class="background" x="3.7" y="5.6" width="4" height="4"/><circle class='fill circle'  cx="5.7" cy="7.6" r="1"/><rect class="background" x="-0.1" y="5.6" width="4" height="4"/><circle class='fill circle' cx="1.9" cy="7.6" r="1"/><rect class="background" x="-3.9" y="5.6" width="4" height="4"/><rect class="background" x="5.6" y="1.8" width="4" height="4"/><circle class='fill circle' cx="7.6" cy="3.8" r="1"/><rect class="background" x="1.8" y="1.8" width="4" height="4"/><circle class='fill circle' cx="3.8" cy="3.8" r="1"/><rect class="background" x="-2" y="1.8" width="4" height="4"/><circle class='fill circle' cy="3.8" r="1"/><rect class="background" x="7.5" y="-2" width="4" height="4"/><rect class="background" x="3.7" y="-2" width="4" height="4"/><circle class='fill circle' cx="5.7" r="1"/><rect class="background" x="-0.1" y="-2" width="4" height="4"/><circle class='fill circle' cx="1.9" r="1"/><rect class="background" x="-3.9" y="-2" width="4" height="4"/></pattern></defs><path class="outline" d="M211.82,254a68.73,68.73,0,0,1,4.68-26.19,57.07,57.07,0,0,1,12.6-19.25,54.54,54.54,0,0,1,18.27-12,57.87,57.87,0,0,1,21.69-4.15,44.29,44.29,0,0,1,20.25,4.6A59.62,59.62,0,0,1,304.7,208L287.78,227a41,41,0,0,0-8.46-5.85,22.05,22.05,0,0,0-9.9-2.06,22.53,22.53,0,0,0-10,2.33,24.64,24.64,0,0,0-8.28,6.67,32.88,32.88,0,0,0-5.58,10.62A45.42,45.42,0,0,0,243.5,253q0,16.57,6.93,25.39a22.1,22.1,0,0,0,18.27,8.82,25,25,0,0,0,11.79-2.61,31.85,31.85,0,0,0,8.73-6.75l16.92,18.71a49.26,49.26,0,0,1-37.8,17.29,64.11,64.11,0,0,1-21.78-3.69,50,50,0,0,1-18-11.16,52.83,52.83,0,0,1-12.24-18.73Q211.82,269,211.82,254Z" transform="translate(-210.32 -190.98)"/><path class="outline" d="M317.3,221.65h31v51.48q0,8.64,2.16,11.52c1.44,1.92,3.72,2.87,6.84,2.87a12.89,12.89,0,0,0,7.11-1.79,23.12,23.12,0,0,0,5.85-6.13v-58h31v90H376l-2.16-11.88h-.72a44.66,44.66,0,0,1-12,10.25,31.08,31.08,0,0,1-15.75,3.79,28.5,28.5,0,0,1-12.69-2.62,23,23,0,0,1-8.73-7.38,32.53,32.53,0,0,1-5-11.52,65.28,65.28,0,0,1-1.62-15.21Z" transform="translate(-210.32 -190.98)"/><path class="outline" d="M428.54,282.13q12.24,9,22,9c3.24,0,5.55-.46,6.93-1.36a4.5,4.5,0,0,0,2.07-4,4.19,4.19,0,0,0-1.44-3.15,15.15,15.15,0,0,0-3.87-2.52,52.31,52.31,0,0,0-5.49-2.25c-2-.73-4.2-1.56-6.48-2.52a75,75,0,0,1-8-3.87,32.78,32.78,0,0,1-7.29-5.5,27.48,27.48,0,0,1-5.31-7.46,22.06,22.06,0,0,1-2.07-9.81,27.43,27.43,0,0,1,2.61-12.07,26.47,26.47,0,0,1,7.29-9.18,34.08,34.08,0,0,1,11.25-5.84,48,48,0,0,1,14.49-2.08q11.16,0,19.17,3.69a75.57,75.57,0,0,1,13.95,8.2l-13.68,18.36a46.78,46.78,0,0,0-9.54-5.58,22.69,22.69,0,0,0-8.82-2q-7.92,0-7.92,5a4,4,0,0,0,1.35,3.06,13.72,13.72,0,0,0,3.69,2.33,45.14,45.14,0,0,0,5.4,2.07q3.06,1,6.48,2.25a68.81,68.81,0,0,1,8.1,3.6,33.38,33.38,0,0,1,7.47,5.31,24.93,24.93,0,0,1,5.4,7.57,24.58,24.58,0,0,1,2.07,10.52,27.86,27.86,0,0,1-2.52,11.79,26.79,26.79,0,0,1-7.38,9.54,34.66,34.66,0,0,1-12.06,6.31,55.88,55.88,0,0,1-16.56,2.25,59.22,59.22,0,0,1-34.92-12.6Z" transform="translate(-210.32 -190.98)"/><path class="outline" d="M507.38,245.77H495.5v-23l13.68-1.08,3.6-23.4h25.56v23.4h20.52v24.12H538.34v30.77q0,7.56,3.24,10.36a11.23,11.23,0,0,0,7.56,2.79,19.24,19.24,0,0,0,4.23-.46,35.91,35.91,0,0,0,3.69-1l4.68,22.31c-2.4.73-5.28,1.44-8.64,2.17a62.24,62.24,0,0,1-12.6,1.08,38.74,38.74,0,0,1-15-2.62,26.42,26.42,0,0,1-10.26-7.46,31,31,0,0,1-5.94-11.61,55.72,55.72,0,0,1-1.89-15Z" transform="translate(-210.32 -190.98)"/><path class="outline" d="M568.94,266.65a51.35,51.35,0,0,1,3.69-20,44.27,44.27,0,0,1,9.9-14.86,42.51,42.51,0,0,1,14.31-9.17,45.81,45.81,0,0,1,16.74-3.16,45.11,45.11,0,0,1,16.65,3.16,42.73,42.73,0,0,1,14.22,9.17,45.38,45.38,0,0,1,10,14.86,54.69,54.69,0,0,1,0,40,45.23,45.23,0,0,1-10,14.85,42.42,42.42,0,0,1-14.22,9.17,45.11,45.11,0,0,1-16.65,3.16,45.81,45.81,0,0,1-16.74-3.16,42.21,42.21,0,0,1-14.31-9.17,44.13,44.13,0,0,1-9.9-14.85A51.35,51.35,0,0,1,568.94,266.65Zm31.68,0q0,10.25,3,16.29t10,6q7,0,10-6t3-16.29q0-10.26-3-16.3t-10-6q-7,0-10,6T600.62,266.65Z" transform="translate(-210.32 -190.98)"/><path class="outline" d="M674.42,221.65h25.2l2.16,11h.72a74.31,74.31,0,0,1,11.61-9.19q6.21-3.94,15.39-4t15.21,3.69a26.29,26.29,0,0,1,9.63,10.72,73.64,73.64,0,0,1,12.06-10.08,27.51,27.51,0,0,1,15.66-4.33q14.76,0,21.6,10t6.84,26.73v55.44h-31V260.17c0-5.77-.72-9.6-2.16-11.52s-3.72-2.88-6.84-2.88q-5.76,0-12.6,6.83v59H727V260.17c0-5.77-.72-9.6-2.16-11.52s-3.72-2.88-6.84-2.88q-5.76,0-12.6,6.83v59h-31Z" transform="translate(-210.32 -190.98)"/><path class="outline" d="M827.78,286.08a25.42,25.42,0,0,1,11.52-22q11.52-8,37.44-10.71-1.08-9.36-12.6-9.37a31.33,31.33,0,0,0-10.26,1.89,89.75,89.75,0,0,0-12.42,5.67l-10.8-20.15a89.49,89.49,0,0,1,19.26-8.83,67.65,67.65,0,0,1,20.34-3.06q17.46,0,27.45,10t10,32.12v50H882.5L880.34,303h-.72a50,50,0,0,1-11.43,7.83,29.94,29.94,0,0,1-13.41,3,27.69,27.69,0,0,1-11.34-2.25,26,26,0,0,1-8.55-6,25.28,25.28,0,0,1-5.31-8.81A31.35,31.35,0,0,1,827.78,286.08Zm29.52-2.52c0,4.33,2.76,6.48,8.28,6.48a10.47,10.47,0,0,0,6.21-1.71,31.31,31.31,0,0,0,5-4.41V271.69q-11.16,1.62-15.3,4.85C858.68,278.71,857.3,281,857.3,283.56Z" transform="translate(-210.32 -190.98)"/></svg>