<svg id="Layer_1" class='polyback' data-name="Layer 1" xmlns="http://www.w3.org/2000/svg" xmlns:xlink="http://www.w3.org/1999/xlink" viewBox="0 0 698.88 124.32"><defs><style>.cls-1,.fill{fill:none;}.fill,.outline{stroke:#000;stroke-miterlimit:10;stroke-width:3px;}.background{fill:#fff;}.outline{fill:url(#Pattern);}</style><pattern id="Pattern" data-name="New Pattern Swatch 5" width="12" height="11.77" patternUnits="userSpaceOnUse" viewBox="0 0 12 11.77"><rect class="cls-1" width="12" height="11.77"/><line class="fill" x1="4.75" y1="54.17" x2="55.25" y2="4.67"/><line class="fill" x1="-7.25" y1="54.17" x2="43.25" y2="4.67"/><line class="fill" x1="-19.25" y1="54.17" x2="31.25" y2="4.67"/><line class="fill" x1="-31.25" y1="54.17" x2="19.25" y2="4.67"/><line class="fill" x1="-43.25" y1="54.17" x2="7.25" y2="4.67"/><line class="fill" x1="4.75" y1="42.4" x2="55.25" y2="-7.1"/><line class="fill" x1="-7.25" y1="42.4" x2="43.25" y2="-7.1"/><line class="fill" x1="-19.25" y1="42.4" x2="31.25" y2="-7.1"/><line class="fill" x1="-31.25" y1="42.4" x2="19.25" y2="-7.1"/><line class="fill" x1="-43.25" y1="42.4" x2="7.25" y2="-7.1"/><line class="fill" x1="4.75" y1="30.63" x2="55.25" y2="-18.87"/><line class="fill" x1="-7.25" y1="30.63" x2="43.25" y2="-18.87"/><line class="fill" x1="-19.25" y1="30.63" x2="31.25" y2="-18.87"/><line class="fill" x1="-31.25" y1="30.63" x2="19.25" y2="-18.87"/><line class="fill" x1="-43.25" y1="30.63" x2="7.25" y2="-18.87"/><line class="fill" x1="4.75" y1="18.87" x2="55.25" y2="-30.63"/><line class="fill" x1="-7.25" y1="18.87" x2="43.25" y2="-30.63"/><line class="fill" x1="-19.25" y1="18.87" x2="31.25" y2="-30.63"/><line class="fill" x1="-31.25" y1="18.87" x2="19.25" y2="-30.63"/><line class="fill" x1="-43.25" y1="18.87" x2="7.25" y2="-30.63"/><line class="fill" x1="4.75" y1="7.1" x2="55.25" y2="-42.4"/><line class="fill" x1="-7.25" y1="7.1" x2="43.25" y2="-42.4"/><line class="fill" x1="-19.25" y1="7.1" x2="31.25" y2="-42.4"/><line class="fill" x1="-31.25" y1="7.1" x2="19.25" y2="-42.4"/><line class="fill" x1="-43.25" y1="7.1" x2="7.25" y2="-42.4"/></pattern></defs><g id="a"><polygon class="background" points="658.68 120.02 669.68 112.02 671.68 121.02 697.68 121.02 697.68 75.02 666.68 77.02 666.68 92.02 662.68 97.02 654.68 99.02 658.68 120.02"/><polygon class="background" points="620.68 41.02 630.68 60.02 642.68 55.02 654.68 53.02 662.68 54.02 666.68 62.02 648.68 65.02 635.68 69.02 626.68 75.02 620.68 81.02 617.68 91.02 617.68 99.02 620.68 108.02 624.68 115.02 634.68 121.02 647.68 123.02 661.68 118.02 658.68 98.02 653.68 99.02 647.68 96.02 646.68 91.02 650.68 86.02 657.68 83.02 663.68 81.02 666.68 81.02 697.68 77.02 696.68 55.02 689.68 40.02 679.68 32.02 665.68 28.02 647.68 29.02 630.68 35.02 620.68 41.02"/></g><polygon id="m" class="background" points="464.68 32.02 463.68 121.02 494.68 121.02 494.68 63.02 499.68 57.02 507.68 55.02 513.68 56.02 516.68 63.02 516.68 121.02 547.68 121.02 547.68 60.02 557.68 55.02 563.68 55.02 567.68 58.02 568.68 64.02 568.68 121.02 600.68 121.02 599.68 57.02 597.68 47.02 591.68 36.02 582.68 30.02 572.68 28.02 561.68 30.02 550.68 37.02 543.68 43.02 536.68 33.02 527.68 29.02 513.68 29.02 503.68 32.02 491.68 42.02 488.68 31.02 464.68 32.02"/><g id="o"><polygon class="background" points="402.68 54.02 398.68 28.02 414.68 30.02 426.68 35.02 436.68 43.02 443.68 54.02 447.68 67.02 447.68 82.02 443.68 98.02 434.68 110.02 422.68 118.02 406.68 123.02 391.68 121.02 399.68 97.02 408.68 97.02 413.68 90.02 416.68 74.02 413.68 60.02 407.68 54.02 402.68 54.02"/><polygon class="background" points="390.68 74.02 393.68 58.02 400.68 53.02 403.68 53.02 403.68 28.02 388.68 31.02 375.68 38.02 365.68 49.02 360.68 63.02 357.68 77.02 360.68 90.02 364.68 101.02 371.68 110.02 383.68 119.02 394.68 121.02 403.68 123.02 403.68 98.02 397.68 97.02 392.68 90.02 389.68 77.02 390.68 74.02"/></g><polygon id="t" class="background" points="302.68 7.01 299.68 30.02 285.68 32.02 285.68 54.02 297.68 55.02 296.68 82.02 297.68 98.02 301.68 107.02 308.68 116.02 316.68 121.02 331.68 123.02 344.68 122.02 351.68 119.02 346.68 97.02 340.68 99.02 332.68 97.02 328.68 92.02 327.68 55.02 348.68 55.02 348.68 31.02 327.68 30.02 327.68 7.01 302.68 7.01"/><polygon id="s" class="background" points="277.18 40.52 264.18 59.52 254.18 52.52 243.18 50.52 239.18 52.52 238.18 56.52 240.18 59.52 246.18 62.52 262.18 68.52 269.18 73.52 274.18 80.52 278.18 90.52 277.18 98.52 274.18 108.52 266.18 115.52 256.18 120.52 241.18 122.52 229.18 121.52 213.18 116.52 205.18 110.52 218.18 91.52 233.18 99.52 244.18 100.52 249.18 97.52 249.18 91.52 240.18 87.52 226.18 81.52 214.18 72.52 209.18 60.52 209.18 50.52 215.18 40.52 221.18 33.52 232.18 29.52 245.18 27.52 257.18 29.52 270.18 34.52 277.18 40.52"/><polygon id="u" class="background" points="107.68 31.02 106.68 91.02 109.68 105.02 114.68 114.02 121.68 121.02 131.68 123.02 141.68 123.02 149.68 120.02 161.68 109.02 163.68 109.02 165.68 121.02 190.68 121.02 190.68 31.02 160.68 31.02 159.68 88.02 156.68 93.02 148.68 96.02 141.68 95.02 137.68 89.02 138.68 30.02 107.68 31.02"/><polygon id="C" class="background" points="94.18 17.52 77.18 36.52 70.18 31.52 62.18 28.52 55.18 28.52 48.18 31.52 41.18 37.52 36.18 45.52 34.18 53.52 33.18 62.52 33.18 69.52 35.18 77.52 39.18 85.52 45.18 92.52 53.18 95.52 63.18 96.52 71.18 93.52 79.18 87.52 96.18 105.52 90.18 111.52 81.18 117.52 72.18 120.52 63.18 122.52 53.18 122.52 41.18 120.52 29.18 116.52 19.18 108.52 11.18 99.52 4.18 84.52 1.18 63.52 3.18 43.52 11.18 25.52 26.18 10.52 40.18 4.51 56.18 1.51 66.18 1.51 77.18 5.51 87.18 10.52 94.18 17.52"/><path class="outline" d="M560.82,520a68.73,68.73,0,0,1,4.68-26.19,57.07,57.07,0,0,1,12.6-19.25,54.54,54.54,0,0,1,18.27-12,57.87,57.87,0,0,1,21.69-4.15,44.29,44.29,0,0,1,20.25,4.6A59.62,59.62,0,0,1,653.7,474L636.78,493a41,41,0,0,0-8.46-5.85,22.05,22.05,0,0,0-9.9-2.06,22.53,22.53,0,0,0-10,2.33,24.64,24.64,0,0,0-8.28,6.67,32.88,32.88,0,0,0-5.58,10.62A45.42,45.42,0,0,0,592.5,519q0,16.57,6.93,25.39a22.1,22.1,0,0,0,18.27,8.82,24.84,24.84,0,0,0,11.79-2.62,31.47,31.47,0,0,0,8.73-6.75l16.92,18.73a49.24,49.24,0,0,1-37.8,17.27,64.1,64.1,0,0,1-21.78-3.68,50,50,0,0,1-18-11.16,52.83,52.83,0,0,1-12.24-18.73Q560.82,535,560.82,520Z" transform="translate(-559.32 -456.98)"/><path class="outline" d="M666.3,487.65h31v51.48c0,5.75.72,9.6,2.16,11.51s3.72,2.89,6.84,2.89a12.81,12.81,0,0,0,7.11-1.81,23,23,0,0,0,5.85-6.11v-58h31v90H725l-2.16-11.87h-.72a44.88,44.88,0,0,1-12,10.26,31.17,31.17,0,0,1-15.75,3.77,28.64,28.64,0,0,1-12.69-2.6,23.06,23.06,0,0,1-8.73-7.39,32.53,32.53,0,0,1-5-11.52,65.28,65.28,0,0,1-1.62-15.21Z" transform="translate(-559.32 -456.98)"/><path class="outline" d="M777.54,548.13q12.24,9,22,9c3.24,0,5.55-.46,6.93-1.35a4.52,4.52,0,0,0,2.07-4.06,4.17,4.17,0,0,0-1.44-3.14,15.43,15.43,0,0,0-3.87-2.53q-2.43-1.15-5.49-2.25c-2-.72-4.2-1.55-6.48-2.51a75,75,0,0,1-8-3.87,32.78,32.78,0,0,1-7.29-5.5,27.48,27.48,0,0,1-5.31-7.46,22.06,22.06,0,0,1-2.07-9.81,27.43,27.43,0,0,1,2.61-12.07,26.47,26.47,0,0,1,7.29-9.18,34.08,34.08,0,0,1,11.25-5.84,48,48,0,0,1,14.49-2.08q11.16,0,19.17,3.69a75.57,75.57,0,0,1,13.95,8.2l-13.68,18.36a46.78,46.78,0,0,0-9.54-5.58,22.69,22.69,0,0,0-8.82-2q-7.92,0-7.92,5a4,4,0,0,0,1.35,3.06,13.72,13.72,0,0,0,3.69,2.33,45.14,45.14,0,0,0,5.4,2.07q3.06,1,6.48,2.25a68.81,68.81,0,0,1,8.1,3.6,33.38,33.38,0,0,1,7.47,5.31,24.93,24.93,0,0,1,5.4,7.57,24.58,24.58,0,0,1,2.07,10.52,27.86,27.86,0,0,1-2.52,11.79,26.88,26.88,0,0,1-7.38,9.54,34.48,34.48,0,0,1-12.06,6.3,55.56,55.56,0,0,1-16.56,2.25,59.29,59.29,0,0,1-34.92-12.59Z" transform="translate(-559.32 -456.98)"/><path class="outline" d="M856.38,511.77H844.5v-23l13.68-1.08,3.6-23.4h25.56v23.4h20.52v24.12H887.34v30.77c0,5,1.08,8.5,3.24,10.35a11.19,11.19,0,0,0,7.56,2.8,19.24,19.24,0,0,0,4.23-.46,33.52,33.52,0,0,0,3.69-1l4.68,22.31c-2.4.73-5.28,1.44-8.64,2.16a60.82,60.82,0,0,1-12.6,1.08,38.94,38.94,0,0,1-15-2.6,26.46,26.46,0,0,1-10.26-7.48,30.83,30.83,0,0,1-5.94-11.6,55.72,55.72,0,0,1-1.89-15Z" transform="translate(-559.32 -456.98)"/><path class="outline" d="M917.94,532.65a51.35,51.35,0,0,1,3.69-20,44.27,44.27,0,0,1,9.9-14.86,42.51,42.51,0,0,1,14.31-9.17,45.81,45.81,0,0,1,16.74-3.16,45.11,45.11,0,0,1,16.65,3.16,42.73,42.73,0,0,1,14.22,9.17,45.38,45.38,0,0,1,10,14.86,54.69,54.69,0,0,1,0,40,45.08,45.08,0,0,1-10,14.84,42.3,42.3,0,0,1-14.22,9.18,45.1,45.1,0,0,1-16.65,3.15,45.8,45.8,0,0,1-16.74-3.15,42.09,42.09,0,0,1-14.31-9.18,44,44,0,0,1-9.9-14.84A51.35,51.35,0,0,1,917.94,532.65Zm31.68,0q0,10.25,3,16.29t10,6q7,0,10-6t3-16.29q0-10.26-3-16.3t-10-6q-7,0-10,6T949.62,532.65Z" transform="translate(-559.32 -456.98)"/><path class="outline" d="M1023.42,487.65h25.2l2.16,11h.72a74.31,74.31,0,0,1,11.61-9.19q6.21-3.94,15.39-4t15.21,3.69a26.29,26.29,0,0,1,9.63,10.72,73.64,73.64,0,0,1,12.06-10.08,27.51,27.51,0,0,1,15.66-4.33q14.76,0,21.6,10t6.84,26.73v55.43h-31V526.17c0-5.77-.72-9.6-2.16-11.52s-3.72-2.88-6.84-2.88q-5.76,0-12.6,6.83v59h-31V526.17c0-5.77-.72-9.6-2.16-11.52s-3.72-2.88-6.84-2.88q-5.76,0-12.6,6.83v59h-31Z" transform="translate(-559.32 -456.98)"/><path class="outline" d="M1176.78,552.08a25.41,25.41,0,0,1,11.52-22q11.52-8,37.44-10.71-1.08-9.36-12.6-9.37a31.33,31.33,0,0,0-10.26,1.89,89.75,89.75,0,0,0-12.42,5.67l-10.8-20.15a89.49,89.49,0,0,1,19.26-8.83,67.65,67.65,0,0,1,20.34-3.06q17.46,0,27.45,10t10,32.12v50h-25.2l-2.16-8.64h-.72a49.69,49.69,0,0,1-11.43,7.83,29.94,29.94,0,0,1-13.41,3,27.53,27.53,0,0,1-11.34-2.25,25.9,25.9,0,0,1-8.55-6,25.41,25.41,0,0,1-5.31-8.82A31.35,31.35,0,0,1,1176.78,552.08Zm29.52-2.52q0,6.48,8.28,6.48a10.47,10.47,0,0,0,6.21-1.71,31.81,31.81,0,0,0,5-4.41V537.69q-11.16,1.62-15.3,4.85C1207.68,544.71,1206.3,547,1206.3,549.56Z" transform="translate(-559.32 -456.98)"/></svg>